# xmcd
#
# Track frame offsets:
#	150
#	17214
#	30730
#	43303
#	57474
#	72416
#	85490
#	98885
#	110939
#	121236
#	132199
#	143619
#	156289
#	175477
#	191704
#	210646
#	225903
#
# Disc length: 3255 seconds
#
# Revision: 2
# Processed by: cddbd v1.5.2PL0 Copyright (c) Steve Scherf et al.
# Submitted via: audiograbber 1.83.01
#
DISCID=fb0cb511
DTITLE=Roy Orbison with The Royal Philharmonic Orchestra - A Love So Beautiful
DYEAR=2017
DGENRE=Rock
TTITLE0=In Dreams
TTITLE1=Crying
TTITLE2=I'm Hurtin'
TTITLE3=Oh, Pretty Woman
TTITLE4=It's Over
TTITLE5=Dream Baby
TTITLE6=Blue Angel
TTITLE7=Love Hurts
TTITLE8=Uptown
TTITLE9=Mean Woman Blues
TTITLE10=Only The Lonely (Know The Way I Feel)
TTITLE11=Running Scared
TTITLE12=I Drove All Night
TTITLE13=You Got It
TTITLE14=A Love So Beautiful
TTITLE15=Pretty Paper
TTITLE16=I Drove All Night (Duet with Ward Thomas)
EXTD=
EXTT0=
EXTT1=
EXTT2=
EXTT3=
EXTT4=
EXTT5=
EXTT6=
EXTT7=
EXTT8=
EXTT9=
EXTT10=
EXTT11=
EXTT12=
EXTT13=
EXTT14=
EXTT15=
EXTT16=
PLAYORDER=
